<svg width="27" height="27" viewBox="0 0 27 27" fill="none" xmlns="http://www.w3.org/2000/svg">
<path d="M22 21H7.72727L4.2402 1.82112C4.19831 1.5907 4.07688 1.3823 3.89708 1.23225C3.71728 1.08219 3.49052 1 3.25633 1H1" stroke="#9F9F9F" stroke-width="2" stroke-linecap="round" stroke-linejoin="round"/>
<path d="M9 26C10.3807 26 11.5 24.8807 11.5 23.5C11.5 22.1193 10.3807 21 9 21C7.61929 21 6.5 22.1193 6.5 23.5C6.5 24.8807 7.61929 26 9 26Z" stroke="#9F9F9F" stroke-width="2" stroke-linecap="round" stroke-linejoin="round"/>
<path d="M22 26C23.3807 26 24.5 24.8807 24.5 23.5C24.5 22.1193 23.3807 21 22 21C20.6193 21 19.5 22.1193 19.5 23.5C19.5 24.8807 20.6193 26 22 26Z" stroke="#9F9F9F" stroke-width="2" stroke-linecap="round" stroke-linejoin="round"/>
<path d="M6.81818 16H22.5127C22.981 16 23.4346 15.8356 23.7942 15.5355C24.1538 15.2354 24.3966 14.8186 24.4804 14.3578L26 6H5" stroke="#9F9F9F" stroke-width="2" stroke-linecap="round" stroke-linejoin="round"/>
</svg>
